<svg height="511pt" viewBox="0 -1 511.83265 511" width="511pt" xmlns="http://www.w3.org/2000/svg"><path d="m210.941406 148.789062v-.085937c-.679687-2.957031-1.191406-5.949219-1.539062-8.960937-1.652344-15.929688-.847656-32.019532 2.390625-47.703126 1.773437-9.019531 4.09375-17.925781 6.957031-26.664062 1.722656-5.449219.65625-11.394531-2.859375-15.898438-11.152344-14.898437-26.347656-26.277343-43.777344-32.785156-19.003906-6.703125-39.261719-9.09375-59.304687-6.996094-36.480469 4.203126-71.847656 15.203126-104.277344 32.425782 0 0 57.257812 50.429687 33.449219 89.003906.089843.007812.175781.039062.253906.082031 8.238281 1.960938 16.226563 4.851563 23.808594 8.621094 20.992187 10.066406 46.335937 30.378906 34.902343 66.730469 16.636719-1.613282 33.425782.484375 49.152344 6.144531zm0 0" fill="#673ab7"/><path d="m150.269531 131.804688c-10.5 28.367187-27.375 53.941406-49.324219 74.753906 11.433594-36.351563-13.910156-56.664063-34.902343-66.730469-7.582031-3.769531-15.570313-6.660156-23.808594-8.621094 0 0 31.234375-41.984375 76.546875-45.3125 10.277344-.671875 19.949219 4.921875 24.488281 14.167969l5.804688 11.691406c3.152343 6.230469 3.585937 13.488282 1.195312 20.050782zm0 0" fill="#4527a0"/><path d="m301.050781 148.789062v-.085937c.679688-2.957031 1.191407-5.949219 1.539063-8.960937 1.652344-15.929688.847656-32.019532-2.390625-47.703126-1.773438-9.019531-4.09375-17.925781-6.957031-26.664062-1.722657-5.449219-.65625-11.394531 2.859374-15.898438 11.152344-14.898437 26.347657-26.277343 43.777344-32.785156 19.003906-6.703125 39.261719-9.09375 59.304688-6.996094 36.480468 4.203126 71.847656 15.203126 104.277344 32.425782 0 0-57.257813 50.429687-33.449219 89.003906-.089844.007812-.175781.039062-.253907.082031-8.238281 1.960938-16.226562 4.851563-23.808593 8.621094-20.992188 10.066406-46.335938 30.378906-34.902344 66.730469-16.636719-1.613282-33.425781.484375-49.152344 6.144531zm0 0" fill="#673ab7"/><path d="m361.722656 131.804688c10.5 28.367187 27.375 53.941406 49.324219 74.753906-11.433594-36.351563 13.910156-56.664063 34.902344-66.730469 7.582031-3.769531 15.570312-6.660156 23.808593-8.621094 0 0-31.234374-41.984375-76.546874-45.3125-10.277344-.671875-19.949219 4.921875-24.488282 14.167969l-5.804687 11.691406c-3.152344 6.230469-3.585938 13.488282-1.195313 20.050782zm0 0" fill="#4527a0"/><path d="m345.9375 392.839844-21.675781 64.9375h-34.132813l-15.871094-47.699219h-36.523437l-15.871094 47.699219h-34.132812l-21.675781-64.9375zm0 0" fill="#283593"/><path d="m341.996094 394.632812c24.578125-10.601562 43.746094-30.804687 53.042968-55.90625 9.296876-25.097656 7.910157-52.914062-3.832031-76.964843-23.097656-48.007813-57.65625-89.589844-100.625-121.082031-20.539062-15.242188-48.632812-15.242188-69.171875 0-42.96875 31.492187-77.527344 73.074218-100.625 121.082031-11.742187 24.050781-13.128906 51.867187-3.832031 76.964843 9.296875 25.101563 28.464844 45.304688 53.042969 55.90625 27.335937 10.957032 56.550781 16.464844 86 16.214844 29.449218.25 58.664062-5.257812 86-16.214844zm0 0" fill="#4527a0"/><path d="m326.824219 394.632812c42.117187-21.222656 60.585937-82.679687 40.53125-132.871093-17.851563-46.246094-46.226563-87.699219-82.875-121.082031-15.929688-15.246094-41.039063-15.246094-56.96875 0-36.644531 33.382812-65.015625 74.835937-82.867188 121.082031-20.0625 50.191406-1.585937 111.648437 40.523438 132.871093 44.742187 21.621094 96.914062 21.621094 141.65625 0zm0 0" fill="#673ab7"/><path d="m187.730469 457.777344h34.132812v25.601562c0 9.425782-7.640625 17.066406-17.066406 17.066406s-17.066406-7.640624-17.066406-17.066406zm0 0" fill="#009688"/><path d="m290.128906 457.777344h34.132813v25.601562c0 9.425782-7.640625 17.066406-17.066407 17.066406-9.425781 0-17.066406-7.640624-17.066406-17.066406zm0 0" fill="#009688"/><path d="m228.605469 226.269531c1.164062 3.023438 1.773437 6.230469 1.789062 9.472657-.074219 13.597656-10.769531 24.761718-24.351562 25.421874-13.582031.664063-25.3125-9.410156-26.710938-22.9375-1.398437-13.523437 8.023438-25.785156 21.453125-27.914062" fill="#e91e63"/><path d="m194.128906 201.777344c9.757813 15.441406 26.542969 25.035156 44.800782 25.601562" fill="#2c2f38"/><path d="m238.929688 235.914062c-21.304688-.554687-40.90625-11.777343-52.171876-29.867187-2.382812-4.066406-1.019531-9.296875 3.050782-11.679687 4.066406-2.382813 9.292968-1.015626 11.675781 3.050781 8.160156 12.90625 22.183594 20.929687 37.445313 21.429687 4.710937 0 8.53125 3.820313 8.53125 8.53125 0 4.714844-3.820313 8.535156-8.53125 8.535156zm0 0" fill="#2c2f38"/><path d="m311.207031 210.3125c13.5625 2.058594 23.128907 14.394531 21.75 28.042969-1.382812 13.648437-13.222656 23.820312-26.925781 23.121093-13.699219-.695312-24.449219-12.015624-24.433594-25.734374.015625-3.242188.625-6.449219 1.789063-9.472657" fill="#e91e63"/><path d="m317.863281 201.777344c-9.757812 15.441406-26.542969 25.035156-44.800781 25.601562" fill="#2c2f38"/><path d="m273.0625 235.914062c-4.710938 0-8.53125-3.820312-8.53125-8.535156 0-4.710937 3.820312-8.53125 8.53125-8.53125 15.230469-.511718 29.226562-8.492187 37.425781-21.335937 1.425781-2.832031 4.300781-4.640625 7.46875-4.703125 3.167969-.058594 6.109375 1.644531 7.636719 4.421875 1.527344 2.777343 1.390625 6.171875-.359375 8.816406-11.265625 18.089844-30.867187 29.3125-52.171875 29.867187zm0 0" fill="#2c2f38"/><path d="m177.746094 345.019531-10.921875-38.484375c-.875-3.09375.058593-6.414062 2.417969-8.59375 2.363281-2.179687 5.746093-2.851562 8.757812-1.730468l43.351562 16.296874h.085938zm0 0" fill="#e6e7e8"/><path d="m331.261719 340.871094 9.726562-34.300782c.875-3.09375-.058593-6.414062-2.421875-8.59375-2.359375-2.183593-5.746094-2.851562-8.757812-1.734374l-41.472656 15.53125zm0 0" fill="#e6e7e8"/><path d="m349.417969 355.804688c-.777344-2.328126-19.847657-57.035157-93.421875-57.035157-73.574219 0-92.644532 54.707031-93.421875 57.035157-1.488281 4.46875.925781 9.296874 5.390625 10.789062.871094.292969 1.78125.445312 2.699218.441406 3.667969 0 6.925782-2.347656 8.089844-5.828125.160156-.460937 15.835938-45.371093 77.242188-45.371093 60.816406 0 76.570312 43.425781 77.253906 45.40625 1.171875 3.460937 4.421875 5.792968 8.078125 5.792968.917969.003906 1.828125-.148437 2.699219-.441406 4.464844-1.492188 6.878906-6.320312 5.390625-10.789062zm0 0" fill="#2c2f38"/><path d="m.046875 41.222656c-.289063 2.75.769531 5.46875 2.84375 7.296875.511719.460938 51.308594 46.558594 31.828125 78.113281-1.625 2.636719-1.699219 5.945313-.1875 8.644532.636719 1.09375 1.511719 2.027344 2.558594 2.730468l.050781.054688c.207031.152344.453125.210938.667969.347656.457031.3125.941406.582032 1.449218.800782l.238282.070312c.09375 0 .1875.050781.28125.078125.273437.082031.539062.167969.855468.230469 7.527344 1.808594 14.824219 4.472656 21.75 7.933594 27.792969 13.328124 38.042969 32.332031 30.449219 56.472656-.230469.753906-.351562 1.53125-.367187 2.3125v.4375c.023437.851562.175781 1.691406.449218 2.5.070313.203125.113282.402344.199219.597656.308594.777344.734375 1.5 1.261719 2.148438.085938.113281.214844.1875.308594.300781.09375.109375.074218.144531.136718.210937.058594.070313.230469.128906.324219.222656.714844.710938 1.554688 1.289063 2.472657 1.707032l.078124.042968c.929688.371094 1.921876.566407 2.925782.582032.109375 0 .214844.066406.316406.066406s.210938-.058594.316406-.066406h.699219c11.570313-1.03125 23.230469-.246094 34.558594 2.328125-8.71875 13.007812-16.542969 26.601562-23.40625 40.679687-12.816407 26.605469-14.148438 57.304688-3.6875 84.921875 9.003906 24.175781 26.710937 44.117188 49.65625 55.910157l20.121093 60.253906v24.226562c0 14.140625 11.460938 25.601563 25.601563 25.601563 14.136719 0 25.597656-11.460938 25.597656-25.601563v-24.207031l13.339844-40.109375c4.074219.195312 8.160156.292969 12.261719.300781 4.101562.003907 8.1875-.09375 12.261718-.300781l13.339844 40.109375v24.207031c0 14.140625 11.460938 25.601563 25.597656 25.601563 14.140626 0 25.601563-11.460938 25.601563-25.601563v-24.226562l20.121094-60.253906c22.9375-11.792969 40.644531-31.730469 49.648437-55.902344 10.460938-27.617188 9.128906-58.316406-3.6875-84.921875-6.867187-14.101563-14.6875-27.714844-23.417968-40.746094 11.285156-2.542969 22.894531-3.316406 34.417968-2.296875h.699219c.230469 0 .210937.070312.316406.070312.101563 0 .210938-.0625.3125-.070312 1.011719-.011719 2.007813-.210938 2.945313-.582031h.042968c.929688-.410157 1.777344-.988281 2.5-1.703125.09375-.09375.222657-.121094.316407-.214844s.078125-.144531.136719-.214844c.058593-.066406.222656-.1875.316406-.296875.523437-.648437.945312-1.371093 1.253906-2.140625.085938-.207031.136719-.402344.203125-.617187.277344-.800781.425781-1.640625.445313-2.492188.007812-.144531.007812-.289062 0-.433593-.007813-.785157-.132813-1.5625-.367188-2.3125-7.59375-24.140626 2.644531-43.144532 30.539062-56.515626 6.902344-3.445312 14.167969-6.09375 21.667969-7.894531.289063-.0625.574219-.140625.851563-.238281l.265625-.078125c.109375 0 .222656-.050781.324219-.09375.539062-.230469 1.050781-.515625 1.527343-.851563.171875-.101562.351563-.144531.511719-.265624l.042969-.050782c1.046875-.699218 1.921875-1.628906 2.558593-2.714844 1.507813-2.703124 1.433594-6.011718-.195312-8.644531-19.726562-31.972656 31.328125-77.652343 31.847656-78.113281 2.078125-1.828125 3.136719-4.554688 2.84375-7.304688-.292968-2.753906-1.90625-5.191406-4.320312-6.542968-33.476563-17.890625-70.042969-29.269532-107.757813-33.527344-21.296875-2.210938-42.820312.351562-63.003906 7.507812-22.289063 8.40625-41.152344 23.984376-53.613281 44.289063-1.472656 2.320313-1.738282 5.214844-.707032 7.765625 4.003907 10.6875 7.109376 21.695312 9.273438 32.902344 2.621094 12.949218 3.535156 26.1875 2.722656 39.375-23.058594-16.316406-53.914062-16.273438-76.929687.109375-.824219-13.214844.089843-26.480469 2.722656-39.457031 2.167969-11.21875 5.265625-22.238282 9.269531-32.941407 1.023438-2.542969.757813-5.429687-.710937-7.746093-12.453125-20.300782-31.304688-35.878907-53.585938-44.28125-20.195312-7.167969-41.734375-9.734376-63.046875-7.515626-37.703125 4.242188-74.261718 15.601563-107.734375 33.476563-2.417969 1.351563-4.027343 3.796875-4.316406 6.550781zm213.28125 442.15625c0 4.714844-3.820313 8.535156-8.53125 8.535156-4.714844 0-8.535156-3.820312-8.535156-8.535156v-17.066406h17.066406zm2.382813-34.132812h-21.828126l-13.976562-41.875c15.050781 5.003906 30.582031 8.4375 46.34375 10.242187zm102.398437 0h-21.828125l-10.539062-31.660156c15.761718-1.804688 31.292968-5.234376 46.34375-10.238282zm-2.378906 34.132812c0 4.714844-3.820313 8.535156-8.535157 8.535156-4.710937 0-8.53125-3.820312-8.53125-8.535156v-17.066406h17.066407zm27.007812-458.71875c17.816407-6.238281 36.792969-8.449218 55.566407-6.46875 31.441406 3.53125 62.054687 12.390625 90.523437 26.191406-11.539063 12.21875-30.414063 35.71875-32.988281 60.585938-18.074219-15.25-46.824219-32.214844-81.863282-26.777344-3.011718.46875-5.542968 2.511719-6.640624 5.355469-1.097657 2.84375-.597657 6.058594 1.316406 8.433594 1.914062 2.371093 4.949218 3.542969 7.960937 3.074219 35.21875-5.539063 64.1875 18.132812 77.773438 31.9375-4.191407 1.5-8.296875 3.230468-12.296875 5.1875-25.207032 12.085937-39.355469 29.355468-41.984375 49.929687-15.550781-18.398437-26.984375-39.914063-33.515625-63.105469-.945313-4.617187-5.453125-7.597656-10.070313-6.652344-4.621093.941407-7.597656 5.449219-6.65625 10.066407 7.550781 28.03125 21.644531 53.875 41.121094 75.402343-8.8125.550782-17.535156 2.125-25.984375 4.691407-15.914062-21.253907-34.332031-40.511719-54.859375-57.351563.246094-1.457031.589844-2.933594.75-4.359375 1.796875-16.828125.960937-33.832031-2.484375-50.398437-2.109375-10.769532-4.984375-21.375-8.601562-31.734375 10.429687-15.523438 25.433593-27.410157 42.933593-34.007813zm-86.742187 113.117188c10.636718.015625 20.988281 3.433594 29.542968 9.753906 26.253907 19.246094 49.371094 42.441406 68.523438 68.761719.378906.816406.894531 1.5625 1.515625 2.210937 10.621094 14.832032 19.972656 30.53125 27.949219 46.933594 10.773437 22.375 11.886718 48.195312 3.078125 71.414062-8.332031 22.558594-25.6875 40.621094-47.894531 49.84375-26.292969 10.539063-54.390626 15.84375-82.714844 15.617188-28.320313.242188-56.417969-5.046875-82.714844-15.566406-22.207031-9.222656-39.5625-27.285156-47.894531-49.839844-8.808594-23.222656-7.695313-49.042969 3.078125-71.417969 22.488281-46.761719 56.144531-87.261719 97.996094-117.929687 8.546874-6.335938 18.898437-9.761719 29.535156-9.78125zm-142.507813-119.574219c18.789063-2.011719 37.789063.203125 55.613281 6.476563 17.488282 6.585937 32.488282 18.464843 42.90625 33.976562-3.613281 10.371094-6.488281 20.984375-8.59375 31.761719-3.449218 16.550781-4.289062 33.539062-2.492187 50.347656.171875 1.511719.511719 3.03125.769531 4.546875-20.480468 16.828125-38.859375 36.058594-54.742187 57.277344-8.492188-2.59375-17.257813-4.183594-26.121094-4.734375 19.488281-21.535157 33.585937-47.390625 41.128906-75.4375.945313-4.617188-2.035156-9.125-6.65625-10.066407-4.617187-.945312-9.125 2.035157-10.066406 6.652344-6.464844 23.210938-17.902344 44.734375-33.519531 63.082032-2.558594-20.585938-16.75-37.863282-41.890625-49.914063-4.042969-1.976563-8.195313-3.726563-12.433594-5.238281 13.507813-13.808594 42.386719-37.460938 77.824219-31.933594 4.625.667969 8.925781-2.511719 9.644531-7.128906.722656-4.621094-2.40625-8.957032-7.015625-9.730469-34.988281-5.410156-63.769531 11.570313-81.851562 26.820313-2.558594-24.839844-21.445313-48.359376-33-60.585938 28.460937-13.800781 59.066406-22.652344 90.496093-26.171875zm0 0"/><path d="m187.054688 206.566406c-14.121094 8.53125-20.136719 25.929688-14.300782 41.359375 5.835938 15.433594 21.859375 24.496094 38.089844 21.550781 16.234375-2.949218 28.046875-17.066406 28.085938-33.5625 4.710937 0 8.53125-3.820312 8.53125-8.535156 0-4.710937-3.820313-8.53125-8.53125-8.53125-15.253907-.492187-29.277344-8.503906-37.445313-21.394531-2.464844-3.851563-7.535156-5.074219-11.484375-2.769531-3.953125 2.304687-5.382812 7.316406-3.242188 11.363281zm34.808593 29.175782c-.050781 8.570312-6.449219 15.773437-14.953125 16.832031-8.503906 1.0625-16.476562-4.347657-18.632812-12.640625-2.15625-8.292969 2.175781-16.902344 10.117187-20.113282 6.660157 6.15625 14.589844 10.777344 23.230469 13.53125.132812.789063.214844 1.589844.238281 2.390626zm0 0"/><path d="m273.0625 235.914062c.085938 16.445313 11.886719 30.492188 28.070312 33.414063 16.183594 2.921875 32.152344-6.113281 37.980469-21.492187 5.828125-15.378907-.136719-32.730469-14.195312-41.269532l.300781-.488281c1.742188-2.640625 1.882812-6.027344.363281-8.800781-1.523437-2.777344-4.453125-4.480469-7.617187-4.433594-3.164063.050781-6.042969 1.847656-7.476563 4.667969-8.199219 12.84375-22.195312 20.824219-37.425781 21.335937-4.710938 0-8.53125 3.820313-8.53125 8.53125 0 4.714844 3.820312 8.535156 8.53125 8.535156zm34.132812 17.066407c-4.996093.074219-9.765624-2.074219-13.015624-5.867188-3.253907-3.792969-4.648438-8.835937-3.8125-13.761719 8.640624-2.742187 16.566406-7.351562 23.230468-13.5 7.535156 3.148438 11.828125 11.152344 10.277344 19.167969-1.546875 8.019531-8.511719 13.847657-16.679688 13.960938zm0 0"/><path d="m181.011719 288.230469c-6.027344-2.257813-12.8125-.929688-17.542969 3.433593-4.734375 4.363282-6.613281 11.015626-4.855469 17.207032l9.882813 34.800781c-2.371094 3.839844-4.355469 7.902344-5.921875 12.132813-1.488281 4.46875.925781 9.296874 5.390625 10.789062.871094.292969 1.78125.445312 2.699218.441406 3.667969 0 6.925782-2.347656 8.089844-5.828125.160156-.460937 15.835938-45.371093 77.242188-45.371093 60.816406 0 76.570312 43.425781 77.253906 45.40625 1.171875 3.460937 4.421875 5.792968 8.078125 5.792968.917969.003906 1.828125-.148437 2.699219-.441406 4.464844-1.492188 6.878906-6.320312 5.390625-10.789062-2.21875-5.898438-5.179688-11.488282-8.8125-16.640626l8.574219-30.25c1.773437-6.1875-.089844-12.847656-4.8125-17.222656-4.726563-4.371094-11.511719-5.714844-17.542969-3.46875l-39 14.589844c-21.761719-5.605469-44.621094-5.378906-66.269531.660156zm.472656 38.722656-6.476563-22.773437 24.078126 9.054687c-6.414063 3.820313-12.328126 8.429687-17.601563 13.71875zm151.3125-22.773437-5.574219 19.625c-4.859375-4.445313-10.195312-8.335938-15.914062-11.605469zm0 0"/></svg>